<svg xmlns="http://www.w3.org/2000/svg" xmlns:xlink="http://www.w3.org/1999/xlink" contentStyleType="text/css" data-diagram-type="SEQUENCE" height="1165px" preserveAspectRatio="none" style="width:1022px;height:1165px;background:#FFFFFF;" version="1.1" viewBox="0 0 1022 1165" width="1022px" zoomAndPan="magnify"><defs/><g><rect fill="#FFFFCC" height="26.6406" rx="2.5" ry="2.5" style="stroke:#FFDD88;stroke-width:3;" width="1011.4458" x="5" y="5"/><text fill="#000000" font-family="monospace" font-size="10" lengthAdjust="spacing" textLength="355.21" x="10" y="20">Please&#160;use&#160;'!option&#160;handwritten&#160;true'&#160;to&#160;enable&#160;handwritten</text><g><title>UI</title><rect fill="#FFFFFF" height="380.7266" style="stroke:#1E4E5F;stroke-width:1;" width="10" x="190.1509" y="192.2031"/></g><g><title>UI</title><rect fill="#FFFFFF" height="203.9297" style="stroke:#1E4E5F;stroke-width:1;" width="10" x="190.1509" y="645.1953"/></g><g><title>useGymSessions</title><rect fill="#FFFFFF" height="322.4609" style="stroke:#1E4E5F;stroke-width:1;" width="10" x="458.7749" y="221.3359"/></g><g><title>useGymSessions</title><rect fill="#FFFFFF" height="145.6641" style="stroke:#1E4E5F;stroke-width:1;" width="10" x="458.7749" y="674.3281"/></g><g><title>IndexedDB</title><rect fill="#FFFFFF" height="29.1328" style="stroke:#1E4E5F;stroke-width:1;" width="10" x="602.6929" y="485.5313"/></g><g><title>IndexedDB</title><rect fill="#FFFFFF" height="29.1328" style="stroke:#1E4E5F;stroke-width:1;" width="10" x="602.6929" y="703.4609"/></g><g><title>IndexedDB</title><rect fill="#FFFFFF" height="29.1328" style="stroke:#1E4E5F;stroke-width:1;" width="10" x="602.6929" y="1008.7891"/></g><g><title>Sync Queue</title><rect fill="#FFFFFF" height="147.6641" style="stroke:#1E4E5F;stroke-width:1;" width="10" x="756.8369" y="250.4688"/></g><g><title>Sync Queue</title><rect fill="#FFFFFF" height="29.1328" style="stroke:#1E4E5F;stroke-width:1;" width="10" x="756.8369" y="761.7266"/></g><g><title>Sync Queue</title><rect fill="#FFFFFF" height="145.6641" style="stroke:#1E4E5F;stroke-width:1;" width="10" x="756.8369" y="921.3906"/></g><g><title>DynamoDB</title><rect fill="#FFFFFF" height="29.1328" style="stroke:#1E4E5F;stroke-width:1;" width="10" x="932.8931" y="427.2656"/></g><g><title>DynamoDB</title><rect fill="#FFFFFF" height="29.1328" style="stroke:#1E4E5F;stroke-width:1;" width="10" x="932.8931" y="950.5234"/></g><rect fill="none" height="104.5313" style="stroke:#000000;stroke-width:1.5;" width="434.0889" x="556.3569" y="265.4688"/><g><title>User</title><rect fill="#000000" fill-opacity="0.00000" height="967.1172" width="8" x="19.9551" y="117.9375"/><line style="stroke:#1E4E5F;stroke-width:0.5;stroke-dasharray:5.0,5.0;" x1="23" x2="23" y1="117.9375" y2="1085.0547"/></g><g><title>UI</title><rect fill="#000000" fill-opacity="0.00000" height="967.1172" width="8" x="191.1509" y="117.9375"/><line style="stroke:#1E4E5F;stroke-width:0.5;stroke-dasharray:5.0,5.0;" x1="195.0327" x2="195.0327" y1="117.9375" y2="1085.0547"/></g><g><title>useGymSessions</title><rect fill="#000000" fill-opacity="0.00000" height="967.1172" width="8" x="459.7749" y="117.9375"/><line style="stroke:#1E4E5F;stroke-width:0.5;stroke-dasharray:5.0,5.0;" x1="463.644" x2="463.644" y1="117.9375" y2="1085.0547"/></g><g><title>IndexedDB</title><rect fill="#000000" fill-opacity="0.00000" height="967.1172" width="8" x="603.6929" y="117.9375"/><line style="stroke:#1E4E5F;stroke-width:0.5;stroke-dasharray:5.0,5.0;" x1="607.3569" x2="607.3569" y1="117.9375" y2="1085.0547"/></g><g><title>Sync Queue</title><rect fill="#000000" fill-opacity="0.00000" height="967.1172" width="8" x="757.8369" y="117.9375"/><line style="stroke:#1E4E5F;stroke-width:0.5;stroke-dasharray:5.0,5.0;" x1="761.7446" x2="761.7446" y1="117.9375" y2="1085.0547"/></g><g><title>DynamoDB</title><rect fill="#000000" fill-opacity="0.00000" height="967.1172" width="8" x="933.8931" y="117.9375"/><line style="stroke:#1E4E5F;stroke-width:0.5;stroke-dasharray:5.0,5.0;" x1="937.3403" x2="937.3403" y1="117.9375" y2="1085.0547"/></g><g class="participant participant-head" data-participant="User"><text fill="#000000" font-family="Arial" font-size="14" lengthAdjust="spacing" textLength="31.9102" x="5" y="114.6357">User</text><ellipse cx="23.9551" cy="50.1406" fill="#E2E2F0" rx="8" ry="8" style="stroke:#1E4E5F;stroke-width:0.5;"/><path d="M23.9551,58.1406 L23.9551,85.1406 M10.9551,66.1406 L36.9551,66.1406 M23.9551,85.1406 L10.9551,100.1406 M23.9551,85.1406 L36.9551,100.1406 " fill="none" style="stroke:#1E4E5F;stroke-width:0.5;"/></g><g class="participant participant-tail" data-participant="User"><text fill="#000000" font-family="Arial" font-size="14" lengthAdjust="spacing" textLength="31.9102" x="5" y="1097.0498">User</text><ellipse cx="23.9551" cy="1108.8516" fill="#E2E2F0" rx="8" ry="8" style="stroke:#1E4E5F;stroke-width:0.5;"/><path d="M23.9551,1116.8516 L23.9551,1143.8516 M10.9551,1124.8516 L36.9551,1124.8516 M23.9551,1143.8516 L10.9551,1158.8516 M23.9551,1143.8516 L36.9551,1158.8516 " fill="none" style="stroke:#1E4E5F;stroke-width:0.5;"/></g><g class="participant participant-head" data-participant="UI"><rect fill="#F0F4F5" height="46.5938" rx="2.5" ry="2.5" style="stroke:#1E4E5F;stroke-width:0.5;" width="138.2363" x="126.0327" y="70.3438"/><text fill="#000000" font-family="Arial" font-size="14" lengthAdjust="spacing" textLength="14.376" x="187.9629" y="90.3389">UI</text><text fill="#000000" font-family="Arial" font-size="14" lengthAdjust="spacing" textLength="124.2363" x="133.0327" y="106.6357">(GymCheckInList)</text></g><g class="participant participant-tail" data-participant="UI"><rect fill="#F0F4F5" height="46.5938" rx="2.5" ry="2.5" style="stroke:#1E4E5F;stroke-width:0.5;" width="138.2363" x="126.0327" y="1084.0547"/><text fill="#000000" font-family="Arial" font-size="14" lengthAdjust="spacing" textLength="14.376" x="187.9629" y="1104.0498">UI</text><text fill="#000000" font-family="Arial" font-size="14" lengthAdjust="spacing" textLength="124.2363" x="133.0327" y="1120.3467">(GymCheckInList)</text></g><g class="participant participant-head" data-participant="Hook"><rect fill="#F0F4F5" height="46.5938" rx="2.5" ry="2.5" style="stroke:#1E4E5F;stroke-width:0.5;" width="132.2617" x="397.644" y="70.3438"/><text fill="#000000" font-family="Arial" font-size="14" lengthAdjust="spacing" textLength="118.2617" x="404.644" y="90.3389">useGymSessions</text><text fill="#000000" font-family="Arial" font-size="14" lengthAdjust="spacing" textLength="35.7656" x="445.8921" y="106.6357">Hook</text></g><g class="participant participant-tail" data-participant="Hook"><rect fill="#F0F4F5" height="46.5938" rx="2.5" ry="2.5" style="stroke:#1E4E5F;stroke-width:0.5;" width="132.2617" x="397.644" y="1084.0547"/><text fill="#000000" font-family="Arial" font-size="14" lengthAdjust="spacing" textLength="118.2617" x="404.644" y="1104.0498">useGymSessions</text><text fill="#000000" font-family="Arial" font-size="14" lengthAdjust="spacing" textLength="35.7656" x="445.8921" y="1120.3467">Hook</text></g><g class="participant participant-head" data-participant="IDB"><text fill="#000000" font-family="Arial" font-size="14" lengthAdjust="spacing" textLength="76.6719" x="566.3569" y="114.6357">IndexedDB</text><path d="M589.6929,65.6406 C589.6929,55.6406 607.6929,55.6406 607.6929,55.6406 C607.6929,55.6406 625.6929,55.6406 625.6929,65.6406 L625.6929,91.6406 C625.6929,101.6406 607.6929,101.6406 607.6929,101.6406 C607.6929,101.6406 589.6929,101.6406 589.6929,91.6406 L589.6929,65.6406 " fill="#E2E2F0" style="stroke:#181818;stroke-width:1.5;"/><path d="M589.6929,65.6406 C589.6929,75.6406 607.6929,75.6406 607.6929,75.6406 C607.6929,75.6406 625.6929,75.6406 625.6929,65.6406 " fill="none" style="stroke:#181818;stroke-width:1.5;"/></g><g class="participant participant-tail" data-participant="IDB"><text fill="#000000" font-family="Arial" font-size="14" lengthAdjust="spacing" textLength="76.6719" x="566.3569" y="1097.0498">IndexedDB</text><path d="M589.6929,1110.3516 C589.6929,1100.3516 607.6929,1100.3516 607.6929,1100.3516 C607.6929,1100.3516 625.6929,1100.3516 625.6929,1110.3516 L625.6929,1136.3516 C625.6929,1146.3516 607.6929,1146.3516 607.6929,1146.3516 C607.6929,1146.3516 589.6929,1146.3516 589.6929,1136.3516 L589.6929,1110.3516 " fill="#E2E2F0" style="stroke:#181818;stroke-width:1.5;"/><path d="M589.6929,1110.3516 C589.6929,1120.3516 607.6929,1120.3516 607.6929,1120.3516 C607.6929,1120.3516 625.6929,1120.3516 625.6929,1110.3516 " fill="none" style="stroke:#181818;stroke-width:1.5;"/></g><g class="participant participant-head" data-participant="Queue"><path d="M714.7446,91.6406 L808.9292,91.6406 C813.9292,91.6406 813.9292,104.7891 813.9292,104.7891 C813.9292,104.7891 813.9292,117.9375 808.9292,117.9375 L714.7446,117.9375 C709.7446,117.9375 709.7446,104.7891 709.7446,104.7891 C709.7446,104.7891 709.7446,91.6406 714.7446,91.6406 " fill="#E2E2F0" style="stroke:#181818;stroke-width:0.5;"/><path d="M808.9292,91.6406 C803.9292,91.6406 803.9292,104.7891 803.9292,104.7891 C803.9292,117.9375 808.9292,117.9375 808.9292,117.9375 " fill="none" style="stroke:#181818;stroke-width:0.5;"/><text fill="#000000" font-family="Arial" font-size="14" lengthAdjust="spacing" textLength="84.1846" x="714.7446" y="109.6357">Sync Queue</text></g><g class="participant participant-tail" data-participant="Queue"><path d="M714.7446,1084.0547 L808.9292,1084.0547 C813.9292,1084.0547 813.9292,1097.2031 813.9292,1097.2031 C813.9292,1097.2031 813.9292,1110.3516 808.9292,1110.3516 L714.7446,1110.3516 C709.7446,1110.3516 709.7446,1097.2031 709.7446,1097.2031 C709.7446,1097.2031 709.7446,1084.0547 714.7446,1084.0547 " fill="#E2E2F0" style="stroke:#181818;stroke-width:0.5;"/><path d="M808.9292,1084.0547 C803.9292,1084.0547 803.9292,1097.2031 803.9292,1097.2031 C803.9292,1110.3516 808.9292,1110.3516 808.9292,1110.3516 " fill="none" style="stroke:#181818;stroke-width:0.5;"/><text fill="#000000" font-family="Arial" font-size="14" lengthAdjust="spacing" textLength="84.1846" x="714.7446" y="1102.0498">Sync Queue</text></g><g class="participant participant-head" data-participant="DDB"><text fill="#000000" font-family="Arial" font-size="14" lengthAdjust="spacing" textLength="79.1055" x="895.3403" y="114.6357">DynamoDB</text><path d="M919.8931,65.6406 C919.8931,55.6406 937.8931,55.6406 937.8931,55.6406 C937.8931,55.6406 955.8931,55.6406 955.8931,65.6406 L955.8931,91.6406 C955.8931,101.6406 937.8931,101.6406 937.8931,101.6406 C937.8931,101.6406 919.8931,101.6406 919.8931,91.6406 L919.8931,65.6406 " fill="#E2E2F0" style="stroke:#181818;stroke-width:1.5;"/><path d="M919.8931,65.6406 C919.8931,75.6406 937.8931,75.6406 937.8931,75.6406 C937.8931,75.6406 955.8931,75.6406 955.8931,65.6406 " fill="none" style="stroke:#181818;stroke-width:1.5;"/></g><g class="participant participant-tail" data-participant="DDB"><text fill="#000000" font-family="Arial" font-size="14" lengthAdjust="spacing" textLength="79.1055" x="895.3403" y="1097.0498">DynamoDB</text><path d="M919.8931,1110.3516 C919.8931,1100.3516 937.8931,1100.3516 937.8931,1100.3516 C937.8931,1100.3516 955.8931,1100.3516 955.8931,1110.3516 L955.8931,1136.3516 C955.8931,1146.3516 937.8931,1146.3516 937.8931,1146.3516 C937.8931,1146.3516 919.8931,1146.3516 919.8931,1136.3516 L919.8931,1110.3516 " fill="#E2E2F0" style="stroke:#181818;stroke-width:1.5;"/><path d="M919.8931,1110.3516 C919.8931,1120.3516 937.8931,1120.3516 937.8931,1120.3516 C937.8931,1120.3516 955.8931,1120.3516 955.8931,1110.3516 " fill="none" style="stroke:#181818;stroke-width:1.5;"/></g><g><title>UI</title><rect fill="#FFFFFF" height="380.7266" style="stroke:#1E4E5F;stroke-width:1;" width="10" x="190.1509" y="192.2031"/></g><g><title>UI</title><rect fill="#FFFFFF" height="203.9297" style="stroke:#1E4E5F;stroke-width:1;" width="10" x="190.1509" y="645.1953"/></g><g><title>useGymSessions</title><rect fill="#FFFFFF" height="322.4609" style="stroke:#1E4E5F;stroke-width:1;" width="10" x="458.7749" y="221.3359"/></g><g><title>useGymSessions</title><rect fill="#FFFFFF" height="145.6641" style="stroke:#1E4E5F;stroke-width:1;" width="10" x="458.7749" y="674.3281"/></g><g><title>IndexedDB</title><rect fill="#FFFFFF" height="29.1328" style="stroke:#1E4E5F;stroke-width:1;" width="10" x="602.6929" y="485.5313"/></g><g><title>IndexedDB</title><rect fill="#FFFFFF" height="29.1328" style="stroke:#1E4E5F;stroke-width:1;" width="10" x="602.6929" y="703.4609"/></g><g><title>IndexedDB</title><rect fill="#FFFFFF" height="29.1328" style="stroke:#1E4E5F;stroke-width:1;" width="10" x="602.6929" y="1008.7891"/></g><g><title>Sync Queue</title><rect fill="#FFFFFF" height="147.6641" style="stroke:#1E4E5F;stroke-width:1;" width="10" x="756.8369" y="250.4688"/></g><g><title>Sync Queue</title><rect fill="#FFFFFF" height="29.1328" style="stroke:#1E4E5F;stroke-width:1;" width="10" x="756.8369" y="761.7266"/></g><g><title>Sync Queue</title><rect fill="#FFFFFF" height="145.6641" style="stroke:#1E4E5F;stroke-width:1;" width="10" x="756.8369" y="921.3906"/></g><g><title>DynamoDB</title><rect fill="#FFFFFF" height="29.1328" style="stroke:#1E4E5F;stroke-width:1;" width="10" x="932.8931" y="427.2656"/></g><g><title>DynamoDB</title><rect fill="#FFFFFF" height="29.1328" style="stroke:#1E4E5F;stroke-width:1;" width="10" x="932.8931" y="950.5234"/></g><rect fill="#EEEEEE" height="3" style="stroke:#EEEEEE;stroke-width:1;" width="1000.4458" x="0" y="148.5039"/><line style="stroke:#000000;stroke-width:1;" x1="0" x2="1000.4458" y1="148.5039" y2="148.5039"/><line style="stroke:#000000;stroke-width:1;" x1="0" x2="1000.4458" y1="151.5039" y2="151.5039"/><rect fill="#EEEEEE" height="23.1328" style="stroke:#000000;stroke-width:2;" width="174.0244" x="413.2107" y="137.9375"/><text fill="#000000" font-family="Arial" font-size="13" font-weight="bold" lengthAdjust="spacing" textLength="155.4985" x="419.2107" y="154.0044">Normal Flow (Online)</text><g class="message" data-participant-1="User" data-participant-2="UI"><polygon fill="#1E4E5F" points="178.1509,188.2031,188.1509,192.2031,178.1509,196.2031,182.1509,192.2031" style="stroke:#1E4E5F;stroke-width:1;"/><line style="stroke:#1E4E5F;stroke-width:1;" x1="23.9551" x2="184.1509" y1="192.2031" y2="192.2031"/><text fill="#000000" font-family="Arial" font-size="13" lengthAdjust="spacing" textLength="90.8921" x="30.9551" y="187.1372">Pull to refresh</text></g><g class="message" data-participant-1="UI" data-participant-2="Hook"><polygon fill="#1E4E5F" points="446.7749,217.3359,456.7749,221.3359,446.7749,225.3359,450.7749,221.3359" style="stroke:#1E4E5F;stroke-width:1;"/><line style="stroke:#1E4E5F;stroke-width:1;" x1="200.1509" x2="452.7749" y1="221.3359" y2="221.3359"/><text fill="#000000" font-family="Arial" font-size="13" lengthAdjust="spacing" textLength="84.8174" x="207.1509" y="216.27">Call refresh()</text></g><g class="message" data-participant-1="Hook" data-participant-2="Queue"><polygon fill="#1E4E5F" points="744.8369,246.4688,754.8369,250.4688,744.8369,254.4688,748.8369,250.4688" style="stroke:#1E4E5F;stroke-width:1;"/><line style="stroke:#1E4E5F;stroke-width:1;" x1="468.7749" x2="750.8369" y1="250.4688" y2="250.4688"/><text fill="#000000" font-family="Arial" font-size="13" lengthAdjust="spacing" textLength="147.564" x="475.7749" y="245.4028">Process pending syncs</text></g><path d="M556.3569,265.4688 L632.981,265.4688 L632.981,272.6016 L622.981,282.6016 L556.3569,282.6016 L556.3569,265.4688 " fill="#EEEEEE" style="stroke:#000000;stroke-width:1.5;"/><rect fill="none" height="104.5313" style="stroke:#000000;stroke-width:1.5;" width="434.0889" x="556.3569" y="265.4688"/><text fill="#000000" font-family="Arial" font-size="13" font-weight="bold" lengthAdjust="spacing" textLength="31.624" x="571.3569" y="278.5356">loop</text><text fill="#000000" font-family="Arial" font-size="11" font-weight="bold" lengthAdjust="spacing" textLength="149.7407" x="647.981" y="277.6792">[For each pending item]</text><g class="message" data-participant-1="Queue" data-participant-2="DDB"><polygon fill="#1E4E5F" points="925.8931,299.7344,935.8931,303.7344,925.8931,307.7344,929.8931,303.7344" style="stroke:#1E4E5F;stroke-width:1;"/><line style="stroke:#1E4E5F;stroke-width:1;" x1="766.8369" x2="931.8931" y1="303.7344" y2="303.7344"/><text fill="#000000" font-family="Arial" font-size="13" lengthAdjust="spacing" textLength="90.0796" x="773.8369" y="298.6685">Sync changes</text></g><g class="message" data-participant-1="DDB" data-participant-2="Queue"><polygon fill="#1E4E5F" points="777.8369,328.8672,767.8369,332.8672,777.8369,336.8672,773.8369,332.8672" style="stroke:#1E4E5F;stroke-width:1;"/><line style="stroke:#1E4E5F;stroke-width:1;stroke-dasharray:2.0,2.0;" x1="771.8369" x2="936.8931" y1="332.8672" y2="332.8672"/><text fill="#000000" font-family="Arial" font-size="13" lengthAdjust="spacing" textLength="85.4521" x="783.8369" y="327.8013">Confirm sync</text></g><g class="message" data-participant-1="Queue" data-participant-2="IDB"><polygon fill="#1E4E5F" points="618.6929,358,608.6929,362,618.6929,366,614.6929,362" style="stroke:#1E4E5F;stroke-width:1;"/><line style="stroke:#1E4E5F;stroke-width:1;" x1="612.6929" x2="755.8369" y1="362" y2="362"/><text fill="#000000" font-family="Arial" font-size="13" lengthAdjust="spacing" textLength="125.144" x="624.6929" y="356.9341">Update sync status</text></g><g class="message" data-participant-1="Queue" data-participant-2="Hook"><polygon fill="#1E4E5F" points="479.7749,394.1328,469.7749,398.1328,479.7749,402.1328,475.7749,398.1328" style="stroke:#1E4E5F;stroke-width:1;"/><line style="stroke:#1E4E5F;stroke-width:1;stroke-dasharray:2.0,2.0;" x1="473.7749" x2="760.8369" y1="398.1328" y2="398.1328"/><text fill="#000000" font-family="Arial" font-size="13" lengthAdjust="spacing" textLength="96.186" x="485.7749" y="393.0669">Sync complete</text></g><g class="message" data-participant-1="Hook" data-participant-2="DDB"><polygon fill="#1E4E5F" points="920.8931,423.2656,930.8931,427.2656,920.8931,431.2656,924.8931,427.2656" style="stroke:#1E4E5F;stroke-width:1;"/><line style="stroke:#1E4E5F;stroke-width:1;" x1="468.7749" x2="926.8931" y1="427.2656" y2="427.2656"/><text fill="#000000" font-family="Arial" font-size="13" lengthAdjust="spacing" textLength="110.0493" x="475.7749" y="422.1997">Fetch latest data</text></g><g class="message" data-participant-1="DDB" data-participant-2="Hook"><polygon fill="#1E4E5F" points="479.7749,452.3984,469.7749,456.3984,479.7749,460.3984,475.7749,456.3984" style="stroke:#1E4E5F;stroke-width:1;"/><line style="stroke:#1E4E5F;stroke-width:1;stroke-dasharray:2.0,2.0;" x1="473.7749" x2="936.8931" y1="456.3984" y2="456.3984"/><text fill="#000000" font-family="Arial" font-size="13" lengthAdjust="spacing" textLength="102.978" x="485.7749" y="451.3325">Return sessions</text></g><g class="message" data-participant-1="Hook" data-participant-2="IDB"><polygon fill="#1E4E5F" points="590.6929,481.5313,600.6929,485.5313,590.6929,489.5313,594.6929,485.5313" style="stroke:#1E4E5F;stroke-width:1;"/><line style="stroke:#1E4E5F;stroke-width:1;" x1="468.7749" x2="596.6929" y1="485.5313" y2="485.5313"/><text fill="#000000" font-family="Arial" font-size="13" lengthAdjust="spacing" textLength="114.918" x="475.7749" y="480.4653">Update local data</text></g><g class="message" data-participant-1="IDB" data-participant-2="Hook"><polygon fill="#1E4E5F" points="479.7749,510.6641,469.7749,514.6641,479.7749,518.6641,475.7749,514.6641" style="stroke:#1E4E5F;stroke-width:1;"/><line style="stroke:#1E4E5F;stroke-width:1;stroke-dasharray:2.0,2.0;" x1="473.7749" x2="606.6929" y1="514.6641" y2="514.6641"/><text fill="#000000" font-family="Arial" font-size="13" lengthAdjust="spacing" textLength="101.4038" x="485.7749" y="509.5981">Confirm update</text></g><g class="message" data-participant-1="Hook" data-participant-2="UI"><polygon fill="#1E4E5F" points="211.1509,539.7969,201.1509,543.7969,211.1509,547.7969,207.1509,543.7969" style="stroke:#1E4E5F;stroke-width:1;"/><line style="stroke:#1E4E5F;stroke-width:1;stroke-dasharray:2.0,2.0;" x1="205.1509" x2="462.7749" y1="543.7969" y2="543.7969"/><text fill="#000000" font-family="Arial" font-size="13" lengthAdjust="spacing" textLength="111.9346" x="217.1509" y="538.731">Update complete</text></g><g class="message" data-participant-1="UI" data-participant-2="User"><polygon fill="#1E4E5F" points="34.9551,568.9297,24.9551,572.9297,34.9551,576.9297,30.9551,572.9297" style="stroke:#1E4E5F;stroke-width:1;"/><line style="stroke:#1E4E5F;stroke-width:1;stroke-dasharray:2.0,2.0;" x1="28.9551" x2="194.1509" y1="572.9297" y2="572.9297"/><text fill="#000000" font-family="Arial" font-size="13" lengthAdjust="spacing" textLength="126.6802" x="40.9551" y="567.8638">Show updated data</text></g><rect fill="#EEEEEE" height="3" style="stroke:#EEEEEE;stroke-width:1;" width="1000.4458" x="0" y="601.4961"/><line style="stroke:#000000;stroke-width:1;" x1="0" x2="1000.4458" y1="601.4961" y2="601.4961"/><line style="stroke:#000000;stroke-width:1;" x1="0" x2="1000.4458" y1="604.4961" y2="604.4961"/><rect fill="#EEEEEE" height="23.1328" style="stroke:#000000;stroke-width:2;" width="106.6758" x="446.885" y="590.9297"/><text fill="#000000" font-family="Arial" font-size="13" font-weight="bold" lengthAdjust="spacing" textLength="88.1499" x="452.885" y="606.9966">Offline Flow</text><g class="message" data-participant-1="User" data-participant-2="UI"><polygon fill="#1E4E5F" points="178.1509,641.1953,188.1509,645.1953,178.1509,649.1953,182.1509,645.1953" style="stroke:#1E4E5F;stroke-width:1;"/><line style="stroke:#1E4E5F;stroke-width:1;" x1="23.9551" x2="184.1509" y1="645.1953" y2="645.1953"/><text fill="#000000" font-family="Arial" font-size="13" lengthAdjust="spacing" textLength="147.1958" x="30.9551" y="640.1294">Create/Update session</text></g><g class="message" data-participant-1="UI" data-participant-2="Hook"><polygon fill="#1E4E5F" points="446.7749,670.3281,456.7749,674.3281,446.7749,678.3281,450.7749,674.3281" style="stroke:#1E4E5F;stroke-width:1;"/><line style="stroke:#1E4E5F;stroke-width:1;" x1="200.1509" x2="452.7749" y1="674.3281" y2="674.3281"/><text fill="#000000" font-family="Arial" font-size="13" lengthAdjust="spacing" textLength="239.624" x="207.1509" y="669.2622">Call createSession()/updateSession()</text></g><g class="message" data-participant-1="Hook" data-participant-2="IDB"><polygon fill="#1E4E5F" points="590.6929,699.4609,600.6929,703.4609,590.6929,707.4609,594.6929,703.4609" style="stroke:#1E4E5F;stroke-width:1;"/><line style="stroke:#1E4E5F;stroke-width:1;" x1="468.7749" x2="596.6929" y1="703.4609" y2="703.4609"/><text fill="#000000" font-family="Arial" font-size="13" lengthAdjust="spacing" textLength="84.1636" x="475.7749" y="698.395">Save session</text></g><g class="message" data-participant-1="IDB" data-participant-2="Hook"><polygon fill="#1E4E5F" points="479.7749,728.5938,469.7749,732.5938,479.7749,736.5938,475.7749,732.5938" style="stroke:#1E4E5F;stroke-width:1;"/><line style="stroke:#1E4E5F;stroke-width:1;stroke-dasharray:2.0,2.0;" x1="473.7749" x2="606.6929" y1="732.5938" y2="732.5938"/><text fill="#000000" font-family="Arial" font-size="13" lengthAdjust="spacing" textLength="86.0298" x="485.7749" y="727.5278">Confirm save</text></g><g class="message" data-participant-1="Hook" data-participant-2="Queue"><polygon fill="#1E4E5F" points="744.8369,757.7266,754.8369,761.7266,744.8369,765.7266,748.8369,761.7266" style="stroke:#1E4E5F;stroke-width:1;"/><line style="stroke:#1E4E5F;stroke-width:1;" x1="468.7749" x2="750.8369" y1="761.7266" y2="761.7266"/><text fill="#000000" font-family="Arial" font-size="13" lengthAdjust="spacing" textLength="121.4243" x="475.7749" y="756.6606">Add to sync queue</text></g><g class="message" data-participant-1="Queue" data-participant-2="Hook"><polygon fill="#1E4E5F" points="479.7749,786.8594,469.7749,790.8594,479.7749,794.8594,475.7749,790.8594" style="stroke:#1E4E5F;stroke-width:1;"/><line style="stroke:#1E4E5F;stroke-width:1;stroke-dasharray:2.0,2.0;" x1="473.7749" x2="760.8369" y1="790.8594" y2="790.8594"/><text fill="#000000" font-family="Arial" font-size="13" lengthAdjust="spacing" textLength="104.5776" x="485.7749" y="785.7935">Confirm queued</text></g><g class="message" data-participant-1="Hook" data-participant-2="UI"><polygon fill="#1E4E5F" points="211.1509,815.9922,201.1509,819.9922,211.1509,823.9922,207.1509,819.9922" style="stroke:#1E4E5F;stroke-width:1;"/><line style="stroke:#1E4E5F;stroke-width:1;stroke-dasharray:2.0,2.0;" x1="205.1509" x2="462.7749" y1="819.9922" y2="819.9922"/><text fill="#000000" font-family="Arial" font-size="13" lengthAdjust="spacing" textLength="64.562" x="217.1509" y="814.9263">Update UI</text></g><g class="message" data-participant-1="UI" data-participant-2="User"><polygon fill="#1E4E5F" points="34.9551,845.125,24.9551,849.125,34.9551,853.125,30.9551,849.125" style="stroke:#1E4E5F;stroke-width:1;"/><line style="stroke:#1E4E5F;stroke-width:1;stroke-dasharray:2.0,2.0;" x1="28.9551" x2="194.1509" y1="849.125" y2="849.125"/><text fill="#000000" font-family="Arial" font-size="13" lengthAdjust="spacing" textLength="93.8247" x="40.9551" y="844.0591">Show changes</text></g><rect fill="#EEEEEE" height="3" style="stroke:#EEEEEE;stroke-width:1;" width="1000.4458" x="0" y="877.6914"/><line style="stroke:#000000;stroke-width:1;" x1="0" x2="1000.4458" y1="877.6914" y2="877.6914"/><line style="stroke:#000000;stroke-width:1;" x1="0" x2="1000.4458" y1="880.6914" y2="880.6914"/><rect fill="#EEEEEE" height="23.1328" style="stroke:#000000;stroke-width:2;" width="255.2363" x="372.6047" y="867.125"/><text fill="#000000" font-family="Arial" font-size="13" font-weight="bold" lengthAdjust="spacing" textLength="236.7104" x="378.6047" y="883.1919">Background Sync (When Online)</text><g class="message" data-participant-1="Hook" data-participant-2="Queue"><polygon fill="#1E4E5F" points="744.8369,917.3906,754.8369,921.3906,744.8369,925.3906,748.8369,921.3906" style="stroke:#1E4E5F;stroke-width:1;"/><line style="stroke:#1E4E5F;stroke-width:1;" x1="463.7749" x2="750.8369" y1="921.3906" y2="921.3906"/><text fill="#000000" font-family="Arial" font-size="13" lengthAdjust="spacing" textLength="159.25" x="470.7749" y="916.3247">Check for pending items</text></g><g class="message" data-participant-1="Queue" data-participant-2="DDB"><polygon fill="#1E4E5F" points="920.8931,946.5234,930.8931,950.5234,920.8931,954.5234,924.8931,950.5234" style="stroke:#1E4E5F;stroke-width:1;"/><line style="stroke:#1E4E5F;stroke-width:1;" x1="766.8369" x2="926.8931" y1="950.5234" y2="950.5234"/><text fill="#000000" font-family="Arial" font-size="13" lengthAdjust="spacing" textLength="147.0562" x="773.8369" y="945.4575">Sync pending changes</text></g><g class="message" data-participant-1="DDB" data-participant-2="Queue"><polygon fill="#1E4E5F" points="777.8369,975.6563,767.8369,979.6563,777.8369,983.6563,773.8369,979.6563" style="stroke:#1E4E5F;stroke-width:1;"/><line style="stroke:#1E4E5F;stroke-width:1;stroke-dasharray:2.0,2.0;" x1="771.8369" x2="936.8931" y1="979.6563" y2="979.6563"/><text fill="#000000" font-family="Arial" font-size="13" lengthAdjust="spacing" textLength="85.4521" x="783.8369" y="974.5903">Confirm sync</text></g><g class="message" data-participant-1="Queue" data-participant-2="IDB"><polygon fill="#1E4E5F" points="623.6929,1004.7891,613.6929,1008.7891,623.6929,1012.7891,619.6929,1008.7891" style="stroke:#1E4E5F;stroke-width:1;"/><line style="stroke:#1E4E5F;stroke-width:1;" x1="617.6929" x2="755.8369" y1="1008.7891" y2="1008.7891"/><text fill="#000000" font-family="Arial" font-size="13" lengthAdjust="spacing" textLength="125.144" x="629.6929" y="1003.7231">Update sync status</text></g><g class="message" data-participant-1="IDB" data-participant-2="Queue"><polygon fill="#1E4E5F" points="744.8369,1033.9219,754.8369,1037.9219,744.8369,1041.9219,748.8369,1037.9219" style="stroke:#1E4E5F;stroke-width:1;"/><line style="stroke:#1E4E5F;stroke-width:1;stroke-dasharray:2.0,2.0;" x1="607.6929" x2="750.8369" y1="1037.9219" y2="1037.9219"/><text fill="#000000" font-family="Arial" font-size="13" lengthAdjust="spacing" textLength="101.4038" x="614.6929" y="1032.856">Confirm update</text></g><g class="message" data-participant-1="Queue" data-participant-2="Hook"><polygon fill="#1E4E5F" points="474.7749,1063.0547,464.7749,1067.0547,474.7749,1071.0547,470.7749,1067.0547" style="stroke:#1E4E5F;stroke-width:1;"/><line style="stroke:#1E4E5F;stroke-width:1;stroke-dasharray:2.0,2.0;" x1="468.7749" x2="760.8369" y1="1067.0547" y2="1067.0547"/><text fill="#000000" font-family="Arial" font-size="13" lengthAdjust="spacing" textLength="96.186" x="480.7749" y="1061.9888">Sync complete</text></g><!--SRC=[bLHDRzim3BthLn3P9JaKtO3sKY03yb5l1egsMn7qqejgqOqGMV8akLqmxB-FaktOSP9roo5mmaVoFVBHRYDroIqlu9bdcnThAYqMHXaB7vBuOMw7M7Cjtgpq7ZNaN3dinGJcl58-CThVyW9XPYLNlRZ37nNg3E4N0_hCh3LlJPzFrnVNbqdzT-QDdHihq1u6RsIEDrBZgVWzjrvcikJQ_mlaGEx7v2AvPByPuu45h1nQLdO9C5gbJthyPLiirfXjKdqZdP-CW3jOfVl0oY717j0vQRHxqb-DsKHWU622U_xC7S8erG9_ebZEOp1TpXaDgQB0mrPdy2qynqXywkKjjveNfabRKXgRJk7Ms88hI9HvW_6TLZIf2KodBEY0iyz4yWhkAwN06x2OMtJhe5I-Sez1mIeDgC3m2XQSS0reFEbWaJyBtm4RQL5HQpAI2YLg8VKBE2BlkfoQF5F6b93GN95dwnrMUYpYPY8g52KvLn3rP-It5tGnJF_2MTToONGkRH5RxQUd8NrLYj0vHC5vxYl7g1zZ3MedisvZYbAXf_dYa7ChD79Aq1DnHM7d8UoYanXMq3AiAtz7NrbDhgyjqAyTzzLMxjDL9gFzxLSEdaZtAhVIgvZKBvnsXPjrDuMFAOoR32iFK7883MDDngchYff53qx-21wxo_FWgzfa0syjB1Bol9rzhVpl3ijYIdCduybvtNtt-vJluj0U-EkHBgVdvGX_ObexMys42DSHVHClSUZYeO7QuX4iJZfeVnqqYVSNqPh_S0VTYwlsx_XnJU_Zti4FHCMt5UHqUVsZSoUazG-mnRTSZlhzs4KEtFxkSHvTtw3mSR__tqN_0G00]--></g></svg>